<?xml version="1.0" standalone="no"?>
<!DOCTYPE svg PUBLIC "-//W3C//DTD SVG 20010904//EN"
 "http://www.w3.org/TR/2001/REC-SVG-20010904/DTD/svg10.dtd">
<svg version="1.0" xmlns="http://www.w3.org/2000/svg"
 width="285.000000pt" height="285.000000pt" viewBox="0 0 285.000000 285.000000"
 preserveAspectRatio="xMidYMid meet">
<metadata>
Created by potrace 1.14, written by Peter Selinger 2001-2017
</metadata>
<g transform="translate(0.000000,285.000000) scale(0.100000,-0.100000)"
fill="#000000" stroke="none">
<path d="M1365 2416 c-5 -2 -36 -9 -67 -16 -32 -7 -58 -16 -58 -21 0 -4 -12
-10 -26 -13 -14 -4 -56 -38 -94 -76 -53 -54 -73 -83 -94 -137 -43 -112 -38
-242 15 -346 33 -64 136 -160 201 -187 l56 -23 -1 -248 0 -249 -119 0 c-65 0
-118 3 -119 8 -1 4 -2 25 -3 46 -4 60 -26 70 -146 66 -25 0 -52 -3 -62 -6 -20
-6 -38 -55 -32 -89 4 -25 3 -25 -63 -26 -83 -1 -94 -3 -125 -23 -48 -31 -51
-52 -51 -270 0 -220 5 -247 51 -281 26 -20 43 -20 785 -21 720 -1 759 0 788
18 50 31 56 60 57 277 0 219 -6 248 -59 280 -30 19 -53 20 -343 21 -170 0
-312 3 -315 5 -2 3 -5 114 -5 247 l-1 242 66 33 c111 55 197 163 224 278 22
97 1 237 -48 310 -52 78 -136 147 -214 178 -39 15 -176 31 -198 23z m26 -205
c54 -55 23 -137 -56 -148 -56 -7 -95 28 -95 87 0 84 91 121 151 61z"/>
</g>
</svg>
